<svg width="80" height="80" viewBox="0 0 80 80" fill="none" xmlns="http://www.w3.org/2000/svg">
<circle cx="40" cy="40" r="40" fill="black"/>
<path d="M6.78 38.276C9.228 37.82 10.452 36.56 10.452 34.496C10.452 33.584 10.332 32.024 10.092 29.816C9.852 27.464 9.732 25.76 9.732 24.704C9.732 22.976 10.212 21.656 11.172 20.744C12.156 19.832 13.464 19.376 15.096 19.376H17.184V22.22H15.708C14.772 22.22 14.076 22.436 13.62 22.868C13.164 23.276 12.936 23.96 12.936 24.92C12.936 25.616 12.984 26.48 13.08 27.512C13.176 28.52 13.236 29.204 13.26 29.564C13.5 31.868 13.62 33.548 13.62 34.604C13.62 35.876 13.296 36.944 12.648 37.808C12.024 38.648 11.052 39.212 9.732 39.5V39.572C11.052 39.86 12.024 40.436 12.648 41.3C13.296 42.164 13.62 43.232 13.62 44.504C13.62 45.56 13.5 47.24 13.26 49.544C13.236 49.904 13.176 50.6 13.08 51.632C12.984 52.64 12.936 53.492 12.936 54.188C12.936 55.148 13.164 55.832 13.62 56.24C14.076 56.672 14.772 56.888 15.708 56.888H17.184V59.732H15.096C13.464 59.732 12.156 59.276 11.172 58.364C10.212 57.452 9.732 56.132 9.732 54.404C9.732 53.348 9.852 51.644 10.092 49.292C10.332 47.084 10.452 45.524 10.452 44.612C10.452 42.548 9.228 41.288 6.78 40.832V38.276ZM39.9689 27.908L31.7969 43.532V53H28.5209V43.532L20.3129 27.908H23.9489L30.1409 40.616L36.3329 27.908H39.9689ZM58.8683 27.908V30.572H52.0283V53H48.7523V30.572H41.8763V27.908H58.8683ZM72.9809 40.832C70.5329 41.288 69.3089 42.548 69.3089 44.612C69.3089 45.524 69.4289 47.084 69.6689 49.292C69.9089 51.644 70.0289 53.348 70.0289 54.404C70.0289 56.132 69.5369 57.452 68.5529 58.364C67.5929 59.276 66.2969 59.732 64.6649 59.732H62.5769V56.888H64.0529C64.9889 56.888 65.6849 56.672 66.1409 56.24C66.5969 55.832 66.8249 55.148 66.8249 54.188C66.8249 53.492 66.7769 52.64 66.6809 51.632C66.5849 50.6 66.5249 49.904 66.5009 49.544C66.2609 47.24 66.1409 45.56 66.1409 44.504C66.1409 43.232 66.4529 42.164 67.0769 41.3C67.7249 40.436 68.7089 39.86 70.0289 39.572V39.5C68.7089 39.212 67.7249 38.648 67.0769 37.808C66.4529 36.944 66.1409 35.876 66.1409 34.604C66.1409 33.548 66.2609 31.868 66.5009 29.564C66.5249 29.204 66.5849 28.52 66.6809 27.512C66.7769 26.48 66.8249 25.616 66.8249 24.92C66.8249 23.96 66.5969 23.276 66.1409 22.868C65.6849 22.436 64.9889 22.22 64.0529 22.22H62.5769V19.376H64.6649C66.2969 19.376 67.5929 19.832 68.5529 20.744C69.5369 21.656 70.0289 22.976 70.0289 24.704C70.0289 25.76 69.9089 27.464 69.6689 29.816C69.4289 32.024 69.3089 33.584 69.3089 34.496C69.3089 36.56 70.5329 37.82 72.9809 38.276V40.832Z" fill="white"/>
</svg>
