<svg width="100" height="100" viewBox="0 0 100 100" fill="none" xmlns="http://www.w3.org/2000/svg">
<circle cx="50" cy="50" r="50" fill="#CFE1FF"/>
<path d="M16.7 58.104L8.024 49.824L16.7 41.58H20.84L12.128 49.824L20.84 58.104H16.7ZM44.7328 43.272L32.8528 72.288H29.4688L33.3568 62.784L25.4008 43.272H29.0368L35.2288 59.256L41.3488 43.272H44.7328ZM52.0219 45.972V57.6C52.0219 58.56 52.2259 59.244 52.6339 59.652C53.0419 60.036 53.7499 60.228 54.7579 60.228H57.1699V63H54.2179C52.3939 63 51.0259 62.58 50.1139 61.74C49.2019 60.9 48.7459 59.52 48.7459 57.6V45.972H46.1899V43.272H48.7459V38.304H52.0219V43.272H57.1699V45.972H52.0219ZM73.3792 29.088L63.5152 69.12H60.2752L70.1032 29.088H73.3792ZM78.8723 41.58H83.0123L91.7243 49.824L83.0123 58.104H78.8723L87.5843 49.824L78.8723 41.58Z" fill="#0E61FE"/>
</svg>
