<svg width="67" height="41" viewBox="0 0 67 41" fill="none" xmlns="http://www.w3.org/2000/svg">
<path d="M0.78 19.276C3.228 18.82 4.452 17.56 4.452 15.496C4.452 14.584 4.332 13.024 4.092 10.816C3.852 8.464 3.732 6.76 3.732 5.704C3.732 3.976 4.212 2.656 5.172 1.744C6.156 0.831999 7.464 0.375999 9.096 0.375999H11.184V3.22H9.708C8.772 3.22 8.076 3.436 7.62 3.868C7.164 4.276 6.936 4.96 6.936 5.92C6.936 6.616 6.984 7.48 7.08 8.512C7.176 9.52 7.236 10.204 7.26 10.564C7.5 12.868 7.62 14.548 7.62 15.604C7.62 16.876 7.296 17.944 6.648 18.808C6.024 19.648 5.052 20.212 3.732 20.5V20.572C5.052 20.86 6.024 21.436 6.648 22.3C7.296 23.164 7.62 24.232 7.62 25.504C7.62 26.56 7.5 28.24 7.26 30.544C7.236 30.904 7.176 31.6 7.08 32.632C6.984 33.64 6.936 34.492 6.936 35.188C6.936 36.148 7.164 36.832 7.62 37.24C8.076 37.672 8.772 37.888 9.708 37.888H11.184V40.732H9.096C7.464 40.732 6.156 40.276 5.172 39.364C4.212 38.452 3.732 37.132 3.732 35.404C3.732 34.348 3.852 32.644 4.092 30.292C4.332 28.084 4.452 26.524 4.452 25.612C4.452 23.548 3.228 22.288 0.78 21.832V19.276ZM33.9689 8.908L25.7969 24.532V34H22.5209V24.532L14.3129 8.908H17.9489L24.1409 21.616L30.3329 8.908H33.9689ZM52.8683 8.908V11.572H46.0283V34H42.7523V11.572H35.8763V8.908H52.8683ZM66.9809 21.832C64.5329 22.288 63.3089 23.548 63.3089 25.612C63.3089 26.524 63.4289 28.084 63.6689 30.292C63.9089 32.644 64.0289 34.348 64.0289 35.404C64.0289 37.132 63.5369 38.452 62.5529 39.364C61.5929 40.276 60.2969 40.732 58.6649 40.732H56.5769V37.888H58.0529C58.9889 37.888 59.6849 37.672 60.1409 37.24C60.5969 36.832 60.8249 36.148 60.8249 35.188C60.8249 34.492 60.7769 33.64 60.6809 32.632C60.5849 31.6 60.5249 30.904 60.5009 30.544C60.2609 28.24 60.1409 26.56 60.1409 25.504C60.1409 24.232 60.4529 23.164 61.0769 22.3C61.7249 21.436 62.7089 20.86 64.0289 20.572V20.5C62.7089 20.212 61.7249 19.648 61.0769 18.808C60.4529 17.944 60.1409 16.876 60.1409 15.604C60.1409 14.548 60.2609 12.868 60.5009 10.564C60.5249 10.204 60.5849 9.52 60.6809 8.512C60.7769 7.48 60.8249 6.616 60.8249 5.92C60.8249 4.96 60.5969 4.276 60.1409 3.868C59.6849 3.436 58.9889 3.22 58.0529 3.22H56.5769V0.375999H58.6649C60.2969 0.375999 61.5929 0.831999 62.5529 1.744C63.5369 2.656 64.0289 3.976 64.0289 5.704C64.0289 6.76 63.9089 8.464 63.6689 10.816C63.4289 13.024 63.3089 14.584 63.3089 15.496C63.3089 17.56 64.5329 18.82 66.9809 19.276V21.832Z" fill="black"/>
</svg>
